<?xml version="1.0" encoding="utf-8"?>
<!-- Generator: Adobe Illustrator 25.4.1, SVG Export Plug-In . SVG Version: 6.00 Build 0)  -->
<svg version="1.1" id="Layer_1" xmlns="http://www.w3.org/2000/svg" xmlns:xlink="http://www.w3.org/1999/xlink" x="0px" y="0px"
	 viewBox="0 0 512 512" style="enable-background:new 0 0 512 512;" xml:space="preserve">
<style type="text/css">
	.st0{fill:#5570B5;}
	.st1{fill:#FFFFFF;}
	.st2{fill:#1D2A3A;}
	.st3{fill:#FCFDFF;}
</style>
<g>
	<g>
		<path class="st0" d="M497.9,255c0,14.3-5.4,27.9-7.8,41.5c-2.4,14-2,28.6-6.8,41.6c-4.8,13.3-14.6,24.2-21.6,36.3
			c-7,12.2-11.7,26.1-20.7,36.8c-9,10.7-21.9,17.7-32.7,26.7c-10.7,9-19.8,20.5-32,27.5c-12.1,7-26.6,9.1-39.8,14
			c-13,4.7-25.5,12.4-39.5,14.9c-13.6,2.4-27.9-0.6-42.2-0.6c-14.3,0-28.6,2.9-42.2,0.6c-14-2.4-26.4-10.1-39.5-14.9
			c-13.3-4.8-27.8-7-39.8-14c-12.2-7-21.3-18.6-32-27.5c-10.7-9-23.6-16-32.7-26.7c-9-10.7-13.6-24.6-20.7-36.8
			c-7-12.1-16.7-23-21.6-36.3c-4.7-13-4.3-27.7-6.8-41.6c-2.4-13.6-7.8-27.2-7.8-41.5c0-14.3,5.4-27.9,7.8-41.5
			c2.4-14,2-28.6,6.8-41.6c4.8-13.3,14.6-24.2,21.6-36.3c7-12.2,11.7-26.1,20.7-36.8c9-10.7,21.9-17.7,32.7-26.7
			c10.7-9,19.8-20.5,32-27.5c12.1-7,26.6-9.1,39.8-14c13-4.7,25.5-12.4,39.5-14.9c13.6-2.4,27.9,0.6,42.2,0.6
			c14.3,0,28.6-2.9,42.2-0.6c14,2.4,26.4,10.2,39.5,14.9c13.3,4.8,27.8,7,39.8,14c12.2,7,21.3,18.6,32,27.5
			c10.7,9,23.6,16,32.7,26.7c9,10.7,13.6,24.6,20.7,36.8c7,12.1,16.7,23,21.6,36.3c4.7,13,4.3,27.7,6.8,41.6
			C492.5,227.1,497.9,240.7,497.9,255z"/>
	</g>
	<path class="st1" d="M473.7,255c0,120.8-97.9,218.7-218.7,218.7c-120.8,0-218.7-97.9-218.7-218.7c0-120.8,97.9-218.7,218.7-218.7
		C375.8,36.3,473.7,134.2,473.7,255z"/>
	<g>
		<path class="st0" d="M240.9,463.5c-2.5-0.2-4.5-2.4-4.3-4.9l0,0c0.2-2.6,2.4-4.5,4.9-4.3l0,0c2.6,0.2,4.5,2.4,4.3,4.9l0,0
			c-0.2,2.4-2.2,4.3-4.6,4.3l0,0C241.2,463.5,241,463.5,240.9,463.5z M264.5,459.1c-0.2-2.6,1.8-4.8,4.3-5l0,0
			c2.5-0.2,4.8,1.8,4.9,4.3l0,0c0.2,2.6-1.7,4.8-4.3,5l0,0l0,0l0,0c-0.1,0-0.2,0-0.3,0l0,0C266.7,463.5,264.7,461.6,264.5,459.1z
			 M212.7,459.6c-2.5-0.5-4.1-3-3.6-5.5l0,0c0.5-2.5,2.9-4.1,5.5-3.6l0,0c2.5,0.5,4.1,2.9,3.6,5.5l0,0c-0.4,2.2-2.4,3.7-4.5,3.7l0,0
			C213.3,459.8,213,459.7,212.7,459.6z M292.2,456c-0.5-2.5,1.1-5,3.6-5.5l0,0c2.5-0.5,5,1.1,5.5,3.6l0,0c0.5,2.5-1.1,4.9-3.6,5.5
			l0,0l0,0l0,0c-0.3,0.1-0.6,0.1-0.9,0.1l0,0C294.5,459.6,292.7,458.1,292.2,456z M185.2,452c-2.4-0.9-3.7-3.5-2.8-5.9l0,0
			c0.9-2.4,3.5-3.7,5.9-2.8l0,0c2.5,0.9,3.7,3.5,2.8,5.9l0,0c-0.7,1.9-2.4,3.1-4.3,3.1l0,0C186.2,452.2,185.7,452.2,185.2,452z
			 M319.2,449c-0.8-2.4,0.4-5,2.8-5.9l0,0c2.4-0.9,5,0.4,5.9,2.8l0,0c0.9,2.4-0.4,5-2.8,5.9l0,0c-0.6,0.2-1.1,0.3-1.6,0.3l0,0
			C321.6,452.1,319.9,451,319.2,449z M159.1,440.6c-2.3-1.1-3.2-4-2-6.2l0,0c1.2-2.3,3.9-3.1,6.3-2l0,0c2.3,1.2,3.1,4,1.9,6.3l0,0
			c-0.8,1.6-2.4,2.5-4.1,2.5l0,0C160.4,441.2,159.8,441,159.1,440.6z M345,438.5c-1.2-2.3-0.3-5,1.9-6.2l0,0
			c2.3-1.2,5.1-0.3,6.3,1.9l0,0c1.1,2.3,0.3,5.1-2,6.3l0,0c-0.7,0.3-1.4,0.5-2.1,0.5l0,0C347.5,441,345.8,440.1,345,438.5z
			 M134.7,425.8c-2.1-1.4-2.6-4.3-1.1-6.5l0,0c1.5-2.1,4.4-2.6,6.5-1.1l0,0c2.1,1.4,2.6,4.3,1.1,6.4l0,0c-0.9,1.3-2.3,2-3.8,2l0,0
			C136.4,426.7,135.5,426.4,134.7,425.8z M369.1,424.5c-1.4-2.1-1-5,1.1-6.4l0,0c2.1-1.5,5-1,6.5,1.1l0,0c1.4,2.1,0.9,5-1.1,6.5l0,0
			c-0.8,0.6-1.8,0.9-2.6,0.9l0,0C371.4,426.5,370.1,425.8,369.1,424.5z M112.6,407.9c-1.9-1.8-2-4.7-0.3-6.6l0,0
			c1.8-1.9,4.6-1.9,6.5-0.2l0,0c1.9,1.7,2,4.6,0.2,6.5l0,0c-0.9,1-2.1,1.4-3.4,1.4l0,0C114.6,409.1,113.5,408.7,112.6,407.9z
			 M391.1,407.5c-1.8-1.9-1.6-4.8,0.2-6.6l0,0c1.9-1.8,4.8-1.6,6.5,0.3l0,0c1.8,1.8,1.7,4.8-0.2,6.5l0,0c-0.9,0.8-2,1.2-3.1,1.2l0,0
			C393.3,408.9,392,408.4,391.1,407.5z M93.1,387.1c-1.6-2-1.3-4.9,0.7-6.5l0,0c1.9-1.6,4.8-1.3,6.5,0.7l0,0
			c1.6,1.9,1.3,4.9-0.6,6.5l0,0c-0.9,0.8-1.9,1.1-2.9,1.1l0,0C95.3,388.8,94,388.2,93.1,387.1z M410.6,387.5
			c-1.9-1.6-2.3-4.6-0.6-6.5l0,0c1.6-2,4.5-2.3,6.5-0.7l0,0c1.9,1.6,2.3,4.5,0.6,6.5l0,0c-0.9,1.1-2.3,1.7-3.6,1.7l0,0
			C412.5,388.5,411.4,388.2,410.6,387.5z M76.6,363.8L76.6,363.8L76.6,363.8c-1.3-2.1-0.6-5,1.6-6.3l0,0c2.2-1.3,5-0.6,6.3,1.5l0,0
			c1.3,2.2,0.6,5.1-1.5,6.4l0,0c-0.8,0.4-1.6,0.7-2.5,0.7l0,0C79,366.1,77.5,365.3,76.6,363.8z M427.2,365.1
			c-2.2-1.3-2.9-4.1-1.5-6.3l0,0c1.3-2.2,4.1-2.9,6.3-1.6l0,0c2.2,1.4,2.9,4.2,1.5,6.4l0,0c-0.8,1.4-2.4,2.2-3.9,2.2l0,0
			C428.8,365.8,427.9,365.6,427.2,365.1z M63.4,338.6c-1-2.4,0.1-5.1,2.4-6.1l0,0c2.4-1.1,5.1,0,6.1,2.4l0,0c1,2.3-0.1,5-2.4,6.1
			l0,0c-0.6,0.2-1.2,0.4-1.8,0.4l0,0C65.9,341.4,64.2,340.3,63.4,338.6z M440.6,340.6c-2.4-1-3.4-3.7-2.4-6.1l0,0
			c1-2.3,3.7-3.4,6.1-2.4l0,0c2.3,1,3.4,3.8,2.4,6.1l0,0l0,0l0,0c-0.8,1.8-2.4,2.8-4.3,2.8l0,0C441.8,341,441.2,340.9,440.6,340.6z
			 M53.9,311.8c-0.8-2.5,0.7-5,3.1-5.7l0,0c2.5-0.7,5,0.7,5.7,3.2l0,0c0.7,2.4-0.7,5-3.2,5.7l0,0c-0.4,0.1-0.8,0.1-1.2,0.1l0,0
			C56.3,315.1,54.5,313.8,53.9,311.8z M450.5,314.6c-2.4-0.7-3.9-3.3-3.2-5.7l0,0c0.7-2.4,3.3-3.9,5.7-3.2l0,0
			c2.4,0.6,3.9,3.2,3.2,5.7l0,0l0,0l0,0c-0.6,2-2.5,3.3-4.5,3.3l0,0C451.4,314.7,451,314.7,450.5,314.6z M48.1,283.8
			c-0.4-2.6,1.4-4.9,4-5.2l0,0c2.5-0.4,4.8,1.4,5.2,3.9l0,0c0.3,2.5-1.4,4.8-3.9,5.2l0,0c-0.3,0-0.4,0-0.6,0l0,0
			C50.3,287.8,48.4,286.2,48.1,283.8z M456.8,287.4c-2.5-0.4-4.3-2.7-3.9-5.2l0,0c0.3-2.6,2.7-4.3,5.2-4l0,0c2.5,0.4,4.3,2.7,4,5.2
			l0,0l0,0l0,0c-0.3,2.4-2.3,4-4.6,4l0,0C457.2,287.4,457,287.4,456.8,287.4z M46,255.4L46,255.4L46,255.4c0-2.6,2.1-4.6,4.6-4.6
			l0,0c2.6,0,4.6,2.1,4.6,4.6l0,0c0,2.6-2.1,4.6-4.6,4.6l0,0C48.1,260,46,257.9,46,255.4z M454.7,255c0-0.1,0-0.3,0.1-0.4l0,0
			c-0.1-0.1-0.1-0.3-0.1-0.4l0,0c0-2.6,2.1-4.7,4.6-4.7l0,0c2.5,0,4.6,2,4.6,4.6l0,0c0,0.1,0,0.3-0.1,0.4l0,0
			c0.1,0.1,0.1,0.2,0.1,0.4l0,0l0,0l0,0c0,2.6-2.1,4.6-4.6,4.6l0,0C456.7,259.6,454.7,257.6,454.7,255z M51.9,232.2
			c-2.5-0.3-4.3-2.6-4-5.2l0,0c0.3-2.5,2.6-4.3,5.2-4l0,0c2.5,0.3,4.3,2.6,4,5.2l0,0c-0.3,2.3-2.3,4-4.6,4l0,0
			C52.3,232.2,52.1,232.2,51.9,232.2z M452.7,227.1c-0.3-2.6,1.4-4.9,4-5.3l0,0c2.5-0.3,4.9,1.4,5.2,4l0,0c0.4,2.5-1.4,4.9-3.9,5.2
			l0,0c-0.2,0.1-0.4,0.1-0.7,0.1l0,0C455,231,453,229.3,452.7,227.1z M56.8,204.8c-2.4-0.7-3.9-3.3-3.2-5.7l0,0
			c0.7-2.4,3.2-3.9,5.7-3.2l0,0c2.4,0.7,3.9,3.2,3.2,5.7l0,0c-0.6,2-2.4,3.3-4.5,3.3l0,0C57.7,204.9,57.3,204.9,56.8,204.8z
			 M447.1,200.4L447.1,200.4c-0.7-2.5,0.7-5,3.2-5.7l0,0c2.5-0.8,5,0.7,5.7,3.2l0,0c0.6,2.4-0.8,5-3.2,5.7l0,0
			c-0.4,0.1-0.9,0.1-1.3,0.1l0,0C449.6,203.7,447.7,202.4,447.1,200.4z M65.6,178.2c-2.4-1-3.5-3.7-2.5-6.1l0,0l0,0l0,0
			c1-2.3,3.8-3.4,6.1-2.4l0,0c2.4,1,3.5,3.7,2.4,6.1l0,0c-0.8,1.8-2.5,2.8-4.3,2.8l0,0C66.7,178.6,66.1,178.5,65.6,178.2z
			 M437.9,174.8c-1-2.3,0-5.1,2.4-6.1l0,0c2.3-1,5,0,6.1,2.4l0,0c1,2.3-0.1,5.1-2.4,6.1l0,0c-0.6,0.3-1.3,0.4-1.9,0.4l0,0
			C440.4,177.5,438.7,176.5,437.9,174.8z M77.8,153.1c-2.2-1.3-2.9-4.1-1.6-6.3l0,0c1.3-2.2,4.2-2.9,6.3-1.6l0,0
			c2.2,1.3,2.9,4.2,1.6,6.4l0,0c-0.9,1.4-2.4,2.2-4,2.2l0,0C79.4,153.8,78.5,153.6,77.8,153.1z M425.3,150.7c-1.4-2.2-0.7-5,1.5-6.4
			l0,0c2.1-1.3,5-0.6,6.3,1.5l0,0l0,0l0,0c1.4,2.2,0.7,5.1-1.5,6.4l0,0c-0.8,0.4-1.6,0.7-2.4,0.7l0,0
			C427.7,152.9,426.1,152.1,425.3,150.7z M93.3,130c-2-1.6-2.3-4.5-0.7-6.5l0,0c1.6-2,4.5-2.3,6.5-0.7l0,0c2,1.6,2.3,4.5,0.7,6.5
			v-0.1c-0.9,1.1-2.3,1.8-3.6,1.8l0,0C95.2,131.1,94.2,130.7,93.3,130z M409.5,128.5L409.5,128.5c-1.6-2-1.3-4.9,0.6-6.5l0,0
			c1.9-1.6,4.9-1.3,6.5,0.6l0,0c0,0,0,0,0,0.1l0,0c1.6,1.9,1.3,4.8-0.7,6.5l0,0c-0.8,0.7-1.9,1.1-2.9,1.1l0,0
			C411.7,130.2,410.4,129.6,409.5,128.5z M111.8,109.2c-1.8-1.9-1.7-4.8,0.2-6.5l0,0c1.9-1.8,4.8-1.7,6.5,0.2l0,0
			c1.8,1.9,1.7,4.8-0.2,6.5l0,0c-0.9,0.9-2,1.3-3.1,1.3l0,0C114,110.6,112.7,110.2,111.8,109.2z M390.8,108.7
			c-1.9-1.8-2-4.7-0.3-6.6l0,0c1.8-1.9,4.7-2,6.6-0.3l0,0c1.8,1.8,1.9,4.7,0.2,6.6l0,0c-0.9,0.9-2.1,1.4-3.4,1.4l0,0
			C392.8,109.9,391.7,109.5,390.8,108.7z M133,91c-1.4-2.1-1-5,1.1-6.5l0,0l0,0l0,0c2.1-1.4,5-1,6.5,1.1l0,0c1.4,2.1,0.9,5-1.1,6.5
			l0,0c-0.8,0.6-1.8,0.9-2.6,0.9l0,0C135.3,93,133.9,92.3,133,91z M369.6,91.5L369.6,91.5c-2.1-1.4-2.6-4.3-1.1-6.5l0,0
			c1.4-2.1,4.3-2.6,6.4-1.1l0,0c2.1,1.5,2.6,4.4,1.1,6.5l0,0c-0.9,1.3-2.3,2-3.8,2l0,0C371.4,92.4,370.4,92,369.6,91.5z M156.4,75.9
			c-1.2-2.3-0.3-5,1.9-6.2l0,0l0,0l0,0c2.3-1.2,5.1-0.3,6.3,1.9l0,0c1.1,2.3,0.2,5.1-2,6.2l0,0c-0.7,0.4-1.4,0.6-2.1,0.6l0,0
			C158.9,78.4,157.2,77.6,156.4,75.9z M346.3,77.4c-2.3-1.1-3.2-4-2-6.2l0,0c1.2-2.3,3.9-3.2,6.2-2l0,0c2.3,1.2,3.2,3.9,2,6.2l0,0
			c-0.8,1.6-2.4,2.5-4.1,2.5l0,0C347.7,77.9,347,77.7,346.3,77.4z M181.7,64.2c-0.9-2.4,0.4-5.1,2.8-5.9l0,0l0,0l0,0
			c2.4-0.8,5.1,0.4,6,2.8l0,0c0.8,2.4-0.4,5.1-2.8,5.9l0,0c-0.5,0.2-1,0.3-1.6,0.3l0,0C184.2,67.3,182.4,66.1,181.7,64.2z
			 M321.3,66.6c-2.5-0.8-3.7-3.5-2.8-5.9l0,0c0.8-2.4,3.4-3.7,5.9-2.8l0,0l0,0l0,0c2.4,0.8,3.6,3.4,2.8,5.9l0,0
			c-0.7,1.9-2.4,3.1-4.4,3.1l0,0C322.3,66.8,321.8,66.8,321.3,66.6z M208.4,56c-0.6-2.5,1.1-5,3.6-5.5l0,0l0,0l0,0
			c2.4-0.6,5,1.1,5.5,3.6l0,0c0.5,2.5-1.1,5-3.6,5.5l0,0c-0.3,0.1-0.6,0.1-0.9,0.1l0,0C210.7,59.7,208.8,58.2,208.4,56z M295,59.3
			c-2.5-0.5-4.1-2.9-3.6-5.5l0,0c0.6-2.5,3-4.1,5.5-3.6l0,0c2.5,0.5,4.1,2.9,3.6,5.4l0,0c-0.4,2.2-2.4,3.7-4.5,3.7l0,0
			C295.7,59.4,295.4,59.4,295,59.3z M235.8,51.5c-0.2-2.6,1.8-4.8,4.3-5l0,0l0,0l0,0c2.5-0.2,4.8,1.8,4.9,4.3l0,0
			c0.2,2.5-1.7,4.7-4.3,4.9l0,0c-0.1,0-0.2,0.1-0.3,0.1l0,0C238,55.9,236,54,235.8,51.5z M268,55.7L268,55.7
			c-2.5-0.2-4.5-2.4-4.3-4.9l0,0c0.1-2.6,2.3-4.5,4.9-4.3l0,0l0,0l0,0c2.6,0.1,4.5,2.3,4.3,4.9l0,0c-0.2,2.4-2.2,4.3-4.6,4.3l0,0
			C268.3,55.7,268.1,55.7,268,55.7z"/>
	</g>
	<path class="st2" d="M446.7,255c0,105.9-85.8,191.7-191.7,191.7c-105.9,0-191.7-85.8-191.7-191.7c0-105.9,85.8-191.7,191.7-191.7
		C360.9,63.3,446.7,149.1,446.7,255z"/>
	<rect x="94.4" y="196.9" class="st3" width="321.3" height="5.5"/>
	<rect x="94.4" y="288.9" class="st3" width="321.3" height="5.5"/>
	<polygon class="st1" points="255,393.3 262,407.4 277.6,409.7 266.3,420.7 269,436.3 255,428.9 241,436.3 243.7,420.7 232.4,409.7 
		248,407.4 	"/>
	<polygon class="st1" points="206.1,379.2 211.2,389.4 222.5,391.1 214.3,399 216.3,410.3 206.1,405 196,410.3 198,399 189.8,391.1 
		201.1,389.4 	"/>
	<polygon class="st1" points="303.8,379.2 308.9,389.4 320.2,391.1 312,399 314,410.3 303.8,405 293.7,410.3 295.7,399 287.5,391.1 
		298.8,389.4 	"/>
	<g>
		<path class="st1" d="M318.6,98.3c-2.5,0-4.1,4-6.6,2.7c-2.5-1.3-1.8-5.8-6.8-5.1c-3.4,0.5-5,0.7-6.5,0.7c-1.5,0-4-0.1-4.5,2.5
			c-0.5,2.6-1,3.2-3,2.4c-1.9-0.8-3.9-1.4-6.5-1.5c-2.6-0.1-2.4,0.9-0.7,4.2c1.7,3.3,6.4,3.3,8.4,2.7c-8.5,4.2-12.6-3.2-13.3-3.1
			c-1,0.1-3.2,0.2-4.4,0.2c-8.3,0-8.4-2.1-22.3-0.3c-14,1.8-26.2,0-34.6-0.8c-6.6-0.6-16-0.2-21.1,4.2c-4.3,1.2-6.5,3.3-7.1,8.6
			c-0.7,5.6,0.6,12.9-1.2,21.1c-1.9,8.2-3.7,11-5.3,13.8c-1.6,2.8-1.3,7.1,0.2,8.7c1.6-2,2.4-4.9,2.2-7.3c-0.2-2.3,0.5-4.5,2.5-9.1
			c2-4.6,2.8-11.3,2.7-16.9c-0.1-4.5,0-7.9,2-9.5c-0.6,5,1.1,8.3,1.6,14.4c0.7,7.8-0.4,11.5-3.4,15.1c-3,3.6-2.8,7.2-1.7,12.8
			c1.2,5.6,1.3,8.9,0.1,12c-1.2,3.1-0.4,3.6,0.8,3.9c1.2,0.3,1.3,1.4,1,2.6c-0.3,1.2,0.7,1.3,3.8,1.2c3.1-0.1,6.1-0.3,3.8-4
			c-2.3-3.8-3.3-1.2-3.5-5.5c-0.3-8,2.3-10.6,3-14.1c0.7-3.5,2.7-4,5-3.5c2.2,0.5,5.8,4.5,10.6,5.1c4.2,0.5,9.1-0.5,13.1-4
			c8.2,3.1,16.9,2,23.1,1.4c6.3-0.7,9.9-3.5,12.1-1.3c2.2,2.2,0.3,4.6,1.8,7.6c1.6,3,3.7,5.7,2.6,9.4c-1,3.6-0.5,4.8,1,4.8
			c1.6,0,0.9,1,0.4,2.1c-0.5,1,1.2,1,4.7,1.2c3.5,0.1,4.6,0.1,3.7-2.6c-0.9-2.7-2.6-2.2-4.2-5.7c-1.6-3.5,0.8-5.7,1.8-10
			c1-4.3,3.2-7.7,7.7-9.7c4.6-2,7.4-1.9,9.5-8.4c2.1-6.5,1.8-8.8,5.2-12.8c2.2-2.6,4.8-2.5,8-2.5c1.2,2,3.4,3.9,9.2,2.1
			c5.4-1.7,4.9-7.6,2.5-9.5c-1.2-1-5.3-1.4-8.5-0.3c0.6-2.2,5.1-3.6,6.8-3.1c-0.7-1.2-1.4-3.9-1.2-5.9c0.2-2.5,0.6-4.9,3.3-5.2
			c2.7-0.2,4.6-1.8,5.7-4.1C323.6,97.7,321.2,98.3,318.6,98.3z"/>
		<path class="st1" d="M217.5,166.3c-0.5-2-0.7-4.3-0.7-6.5c-4.5,0.3-8.3-1.2-10.8-2.7c1.9,4,5.8,7.7,4.7,11.3
			c-1.1,3.2,1.3,3.7,2.5,4c1.2,0.3,1.3,1.4,1,2.6c-0.3,1.2,0.7,1.3,3.8,1.2c3.1-0.1,6.1-0.3,3.8-4
			C219.5,168.3,218.5,170.6,217.5,166.3z"/>
		<path class="st1" d="M289.5,167c-1.6-3.5,0.8-5.7,0.3-10c-0.3-2.6-0.5-4.8-0.5-7c-3.2,2.3-9.1,2.9-9.1,5c0,1.2,0.3,2.8,0.8,3.9
			c1.6,3,3.4,4.8,2.4,8.4c-1,3.7-0.5,4.8,1,4.8c1.6,0,0.9,1,0.4,2.1c-0.5,1,1.2,0.5,4.7,0.7c3.5,0.1,4.6-0.4,3.7-3.1
			C292.2,168.9,291,170.5,289.5,167z"/>
	</g>
	<g>
		<path class="st3" d="M159.8,262.6v-34.2c0-9.8,5.1-15.7,14.8-15.7s14.8,5.8,14.8,15.7v6.7h-9.5v-7.4c0-4.2-2-5.9-5-5.9
			s-5,1.7-5,5.9v35.6c0,4.2,2,5.8,5,5.8s5-1.6,5-5.8v-9.8h9.5v9c0,9.8-5.1,15.7-14.8,15.7C165,278.3,159.8,272.5,159.8,262.6z"/>
		<path class="st3" d="M199.6,262.2v-48.7h10v49.4c0,4.6,1.9,6.2,5.1,6.2s5.1-1.6,5.1-6.2v-49.4h9.7v48.7c0,10.2-5.1,16-14.9,16
			C204.7,278.3,199.6,272.5,199.6,262.2z"/>
		<path class="st3" d="M241.1,213.6H256c10.4,0,14.9,4.8,14.9,14.7v3.9c0,6.6-2.1,10.8-6.6,12.6v0.2c5,1.5,6.7,6.3,6.7,13.5v11.2
			c0,3.1,0.1,5.4,1.1,7.7h-10.2c-0.5-1.6-0.9-2.6-0.9-7.8v-11.7c0-5.9-1.7-7.8-6.3-7.8h-3.5v27.3h-10v-63.8H241.1z M254.8,240.9
			c3.7,0,6-1.6,6-6.7v-4.9c0-4.6-1.5-6.6-5.1-6.6h-4.6v18.2H254.8z"/>
		<path class="st3" d="M282.4,213.6h27.3v9.1h-17.3v16.9h13.8v9.1h-13.8v19.6h17.3v9.1h-27.3V213.6z"/>
		<path class="st3" d="M320,213.6h15.3c10,0,14.9,5.6,14.9,15.8v32.3c0,10.2-4.9,15.8-14.9,15.8H320V213.6z M335.2,268.3
			c3.2,0,5.1-1.6,5.1-6.2v-33.2c0-4.6-1.9-6.2-5.1-6.2h-5.1v45.6H335.2z"/>
	</g>
	<g>
		<path class="st1" d="M168.2,322.8l11.4-9.5c3.3-2.7,6.6-2.7,9.3,0.5s2.2,6.5-1.1,9.3l-2.2,1.9l-2.6-3.1l2.4-2.1
			c1.4-1.2,1.4-2.3,0.6-3.3s-2-1.2-3.4,0l-11.8,9.9c-1.4,1.2-1.4,2.3-0.5,3.3c0.8,1,1.9,1.2,3.3,0l3.2-2.7l2.6,3.1l-3,2.5
			c-3.3,2.7-6.6,2.7-9.3-0.5C164.4,328.8,164.9,325.5,168.2,322.8z"/>
		<path class="st1" d="M182.6,338.4l9.1-11.3c2.8-3.4,6.2-4,9.5-1.3s3.6,6.1,0.8,9.5l-9.1,11.3c-2.8,3.4-6.2,4-9.5,1.3
			C180,345.3,179.8,341.9,182.6,338.4z M189.3,344.1l9.4-11.8c1.2-1.5,1-2.7-0.1-3.5c-1.1-0.9-2.2-0.8-3.5,0.7l-9.4,11.8
			c-1.2,1.5-1,2.7,0.1,3.5C186.9,345.7,188.1,345.7,189.3,344.1z"/>
		<path class="st1" d="M209.8,332.9l5.6,2.7l-6,19h0.1l11-16.6l5.6,2.7l-11.9,24.9l-3.7-1.8l9-18.9h-0.1l-12,17.5l-3.3-1.6l6.2-20.2
			h-0.1l-9,18.9l-3.4-1.6L209.8,332.9z"/>
		<path class="st1" d="M230.7,341.9l6.2,1.4c4.2,0.9,5.8,3.8,4.8,8.1l-0.6,2.7c-1,4.3-3.6,6.2-7.8,5.3l-2-0.4l-2.4,11l-4.2-0.9
			L230.7,341.9z M234.3,355.5c1.3,0.3,2.2-0.2,2.6-2.1l0.7-3.2c0.4-1.9-0.2-2.7-1.5-3l-2-0.4l-1.8,8.3L234.3,355.5z"/>
		<path class="st1" d="M247.7,345.1l4.3,0.1l-0.8,23.7l7.1,0.2l-0.1,3.9l-11.5-0.4L247.7,345.1z"/>
		<path class="st1" d="M263.7,345l4.3-0.5l3.1,27.4l-4.3,0.5L263.7,345z"/>
		<path class="st1" d="M276.8,342.9l5.7-1.6l11.8,25.4l-4.2,1.2l-2.2-5.1v0.1l-4.7,1.3l0.7,5.4l-3.9,1.1L276.8,342.9z M286.4,359.4
			l-5.6-12.6h-0.1l1.9,13.7L286.4,359.4z"/>
		<path class="st1" d="M290.5,338.5l4.8-2.5l11.4,12.7h0.1l-7.7-14.6l3.4-1.8l12.8,24.5l-3.9,2.1l-14-15.4h-0.1l9.3,17.9l-3.4,1.8
			L290.5,338.5z"/>
		<path class="st1" d="M320,345.9l-9.4-11.5c-2.7-3.3-2.6-6.7,0.7-9.3s6.5-2.1,9.2,1.2l1.8,2.3l-3.2,2.6l-2-2.5
			c-1.1-1.4-2.3-1.4-3.3-0.6s-1.2,2-0.1,3.4l9.8,12c1.1,1.4,2.3,1.4,3.3,0.6s1.2-1.9,0.1-3.3l-2.7-3.3l3.2-2.6l2.5,3
			c2.7,3.3,2.6,6.7-0.7,9.3C326,349.8,322.7,349.2,320,345.9z"/>
		<path class="st1" d="M319.7,318.1l7.6-9.1l3,2.5l-4.8,5.7l5.6,4.7l3.8-4.6l3,2.5l-3.8,4.6l6.5,5.4l4.8-5.7l3,2.5l-7.6,9.1
			L319.7,318.1z"/>
	</g>
</g>
</svg>
